<svg xmlns="http://www.w3.org/2000/svg" viewBox="0 0 512 512" role="img" aria-label="社团管理平台图标">
  <defs>
    <linearGradient id="background" x1="72" y1="48" x2="440" y2="464" gradientUnits="userSpaceOnUse">
      <stop stop-color="#3b82f6"/>
      <stop offset="1" stop-color="#1d4ed8"/>
    </linearGradient>
  </defs>
  <rect width="512" height="512" rx="112" fill="url(#background)"/>
  <circle cx="256" cy="252" r="148" fill="#fff" fill-opacity=".14"/>
  <path d="M256 118c-63 0-114 46-114 104v54c0 29-12 57-34 77-8 7-3 20 8 20h280c11 0 16-13 8-20-22-20-34-48-34-77v-54c0-58-51-104-114-104Z" fill="#fff"/>
  <path d="M210 390c7 20 25 34 46 34s39-14 46-34h-92Z" fill="#dbeafe"/>
  <circle cx="256" cy="218" r="34" fill="#2563eb"/>
  <path d="M198 302c12-37 34-56 58-56s46 19 58 56" fill="none" stroke="#2563eb" stroke-width="26" stroke-linecap="round"/>
</svg>
